<?xml version="1.0" encoding="utf-8"?>
<svg width="97" height="20" viewBox="0 0 97 20" fill="none" xmlns="http://www.w3.org/2000/svg">
  <path fill-rule="evenodd" clip-rule="evenodd" d="M 4.423 9.289 L 4.423 16.358 C 4.423 16.712 4.13 17 3.769 17 L 1.154 17 C 0.793 17 0.5 16.712 0.5 16.358 L 0.5 3.506 C 0.5 3.24 0.667 3.002 0.92 2.906 C 0.92 2.906 6.608 0.764 8.298 0.128 C 8.75 -0.043 9.25 -0.043 9.702 0.128 C 11.392 0.764 17.08 2.906 17.08 2.906 C 17.417 3.033 17.586 3.405 17.457 3.736 C 17.327 4.068 16.949 4.233 16.612 4.106 C 16.612 4.106 10.924 1.964 9.234 1.328 C 9.083 1.271 8.917 1.271 8.766 1.328 L 1.808 3.948 L 1.808 15.715 L 3.115 15.715 L 3.115 6.077 C 3.115 5.722 3.563 5.667 3.769 5.434 L 14.231 5.434 C 14.592 5.434 14.885 5.722 14.885 6.077 L 14.885 15.715 L 16.192 15.715 L 16.192 6.077 C 16.192 5.722 16.485 5.434 16.846 5.434 C 17.207 5.434 17.5 5.722 17.5 6.077 L 17.5 16.358 C 17.5 16.712 17.207 17 16.846 17 L 14.231 17 C 13.87 17 13.577 16.712 13.577 16.358 L 13.577 9.289 L 4.423 9.289 Z M 13.577 8.004 L 13.577 6.719 L 4.423 6.719 L 4.423 8.004 L 13.577 8.004 Z" style="stroke: rgb(204, 251, 65);"/>
  <path fill-rule="evenodd" clip-rule="evenodd" d="M48.1 15.745C47.99 15.875 47.85 15.9575 47.68 15.9925C47.51 16.0275 47.34 16.0275 47.17 15.9925C47 15.9575 46.86 15.91 46.75 15.85C46.58 15.75 46.41 15.6025 46.24 15.4075C46.07 15.2125 45.9325 14.95 45.8275 14.62C45.7225 14.29 45.67 13.865 45.67 13.345C45.67 13.175 45.64 13.0175 45.58 12.8725C45.52 12.7275 45.435 12.6025 45.325 12.4975C45.215 12.3925 45.075 12.3125 44.905 12.2575L44.7719 12.2214C44.6331 12.1905 44.4775 12.175 44.305 12.175L41.5 12.176V15.085C41.5 15.345 41.43 15.5625 41.29 15.7375C41.15 15.9125 40.955 16 40.705 16C40.425 16 40.175 15.9125 39.955 15.7375C39.735 15.5625 39.625 15.345 39.625 15.085V6.415C39.625 6.155 39.7125 5.9375 39.8875 5.7625C40.0625 5.5875 40.28 5.5 40.54 5.5H44.86C45.38 5.5 45.8675 5.6375 46.3225 5.9125C46.7775 6.1875 47.145 6.5675 47.425 7.0525C47.705 7.5375 47.845 8.095 47.845 8.725C47.845 9.105 47.7675 9.475 47.6125 9.835C47.4575 10.195 47.2475 10.52 46.9825 10.81L46.8196 10.9762C46.7084 11.0818 46.592 11.177 46.4704 11.2618L46.389 11.315L46.4182 11.3332C46.5634 11.4364 46.6915 11.5495 46.8025 11.6725C46.9875 11.8775 47.1325 12.0975 47.2375 12.3325C47.3425 12.5675 47.405 12.82 47.425 13.09C47.465 13.34 47.4925 13.56 47.5075 13.75C47.5225 13.94 47.5525 14.1 47.5975 14.23C47.6425 14.36 47.73 14.46 47.86 14.53C48.08 14.66 48.2175 14.8475 48.2725 15.0925C48.3275 15.3375 48.27 15.555 48.1 15.745ZM44.785 7.225H41.5V10.63H44.785C44.965 10.63 45.14 10.5475 45.31 10.3825C45.48 10.2175 45.62 9.9925 45.73 9.7075C45.84 9.4225 45.895 9.11 45.895 8.77C45.895 8.33 45.7775 7.9625 45.5425 7.6675C45.3075 7.3725 45.055 7.225 44.785 7.225ZM54.43 16C55.4 16 56.2175 15.765 56.8825 15.295C57.5475 14.825 58.055 14.1925 58.405 13.3975C58.755 12.6025 58.93 11.72 58.93 10.75C58.93 10.03 58.8325 9.3525 58.6375 8.7175C58.4425 8.0825 58.1525 7.5225 57.7675 7.0375C57.3825 6.5525 56.91 6.175 56.35 5.905C55.79 5.635 55.15 5.5 54.43 5.5H50.845C50.585 5.5 50.3675 5.5875 50.1925 5.7625C50.0175 5.9375 49.93 6.155 49.93 6.415V15.085C49.93 15.345 50.0175 15.5625 50.1925 15.7375C50.3675 15.9125 50.585 16 50.845 16H54.43ZM54.28 7.225H51.805V14.275H54.28C54.91 14.275 55.425 14.1125 55.825 13.7875C56.225 13.4625 56.5175 13.0325 56.7025 12.4975C56.8875 11.9625 56.98 11.38 56.98 10.75C56.98 10.28 56.9275 9.8325 56.8225 9.4075C56.7175 8.9825 56.555 8.6075 56.335 8.2825C56.115 7.9575 55.835 7.7 55.495 7.51C55.155 7.32 54.75 7.225 54.28 7.225Z" fill="#ACD9B2"/>
  <path fill-rule="evenodd" clip-rule="evenodd" d="M 85.86 15.72 C 85.673 15.907 85.441 16 85.164 16 C 84.897 16 84.673 15.907 84.492 15.72 C 84.311 15.533 84.22 15.301 84.22 15.024 L 84.22 5.136 C 84.22 4.859 84.313 4.627 84.5 4.44 C 84.687 4.253 84.919 4.16 85.196 4.16 C 85.473 4.16 85.7 4.253 85.876 4.44 C 86.052 4.627 86.14 4.859 86.14 5.136 L 86.14 15.024 C 86.14 15.301 86.047 15.533 85.86 15.72 Z M 70.324 15.76 C 69.7 16.027 69.025 16.16 68.3 16.16 C 67.553 16.16 66.881 16.067 66.284 15.88 C 65.687 15.693 65.116 15.365 64.572 14.896 C 64.433 14.779 64.327 14.645 64.252 14.496 C 64.177 14.347 64.14 14.197 64.14 14.048 C 64.14 13.803 64.228 13.587 64.404 13.4 C 64.58 13.213 64.801 13.12 65.068 13.12 C 65.271 13.12 65.452 13.184 65.612 13.312 C 66.017 13.643 66.42 13.893 66.82 14.064 C 67.22 14.235 67.713 14.32 68.3 14.32 C 68.695 14.32 69.057 14.259 69.388 14.136 C 69.719 14.013 69.985 13.848 70.188 13.64 C 70.391 13.432 70.492 13.195 70.492 12.928 C 70.492 12.608 70.396 12.336 70.204 12.112 C 70.012 11.888 69.719 11.699 69.324 11.544 C 68.929 11.389 68.428 11.269 67.82 11.184 C 67.244 11.099 66.737 10.968 66.3 10.792 C 65.863 10.616 65.497 10.392 65.204 10.12 C 64.911 9.848 64.689 9.528 64.54 9.16 C 64.391 8.792 64.316 8.379 64.316 7.92 C 64.316 7.227 64.495 6.635 64.852 6.144 C 65.209 5.653 65.692 5.28 66.3 5.024 C 66.908 4.768 67.58 4.64 68.316 4.64 C 69.009 4.64 69.652 4.744 70.244 4.952 C 70.836 5.16 71.319 5.424 71.692 5.744 C 72.001 5.989 72.156 6.272 72.156 6.592 C 72.156 6.827 72.065 7.04 71.884 7.232 C 71.703 7.424 71.489 7.52 71.244 7.52 C 71.084 7.52 70.94 7.472 70.812 7.376 C 70.641 7.227 70.412 7.085 70.124 6.952 C 69.836 6.819 69.532 6.707 69.212 6.616 C 68.892 6.525 68.593 6.48 68.316 6.48 C 67.857 6.48 67.471 6.539 67.156 6.656 C 66.841 6.773 66.604 6.933 66.444 7.136 C 66.284 7.339 66.204 7.573 66.204 7.84 C 66.204 8.16 66.297 8.424 66.484 8.632 C 66.671 8.84 66.94 9.005 67.292 9.128 C 67.644 9.251 68.065 9.36 68.556 9.456 C 69.196 9.573 69.759 9.712 70.244 9.872 C 70.729 10.032 71.132 10.237 71.452 10.488 C 71.772 10.739 72.012 11.053 72.172 11.432 C 72.332 11.811 72.412 12.272 72.412 12.816 C 72.412 13.509 72.22 14.107 71.836 14.608 C 71.452 15.109 70.948 15.493 70.324 15.76 Z M 78.676 15.96 C 78.329 16.093 77.953 16.16 77.548 16.16 C 76.812 16.16 76.145 15.971 75.548 15.592 C 74.951 15.213 74.479 14.691 74.132 14.024 C 73.785 13.357 73.612 12.592 73.612 11.728 C 73.612 10.853 73.785 10.083 74.132 9.416 C 74.479 8.749 74.945 8.227 75.532 7.848 C 76.119 7.469 76.769 7.28 77.484 7.28 C 77.943 7.28 78.364 7.349 78.748 7.488 C 79.132 7.627 79.465 7.803 79.748 8.016 L 79.91 8.144 C 79.961 8.187 80.011 8.232 80.06 8.278 L 80.06 8.256 C 80.06 7.979 80.151 7.747 80.332 7.56 C 80.513 7.373 80.743 7.28 81.02 7.28 C 81.297 7.28 81.527 7.371 81.708 7.552 C 81.889 7.733 81.98 7.968 81.98 8.256 L 81.98 15.024 C 81.98 15.301 81.889 15.533 81.708 15.72 C 81.527 15.907 81.297 16 81.02 16 C 80.743 16 80.513 15.907 80.332 15.72 L 80.249 15.623 C 80.148 15.488 80.088 15.334 80.068 15.159 L 80.061 15.04 L 79.983 15.123 C 79.868 15.241 79.734 15.357 79.58 15.472 C 79.324 15.664 79.023 15.827 78.676 15.96 Z M 77.788 14.4 C 77.329 14.4 76.924 14.283 76.572 14.048 C 76.22 13.813 75.945 13.493 75.748 13.088 C 75.551 12.683 75.452 12.229 75.452 11.728 C 75.452 11.216 75.551 10.757 75.748 10.352 C 75.945 9.947 76.22 9.627 76.572 9.392 C 76.924 9.157 77.329 9.04 77.788 9.04 C 78.257 9.04 78.668 9.157 79.02 9.392 C 79.372 9.627 79.647 9.947 79.844 10.352 C 80.041 10.757 80.14 11.216 80.14 11.728 C 80.14 12.229 80.041 12.683 79.844 13.088 C 79.647 13.493 79.372 13.813 79.02 14.048 C 78.668 14.283 78.257 14.4 77.788 14.4 Z M 92.332 16.16 C 92.865 16.16 93.383 16.072 93.884 15.896 C 94.385 15.72 94.775 15.515 95.052 15.28 C 95.351 15.045 95.5 14.784 95.5 14.496 C 95.5 14.283 95.423 14.096 95.268 13.936 C 95.113 13.776 94.919 13.696 94.684 13.696 C 94.513 13.696 94.332 13.744 94.14 13.84 C 94.023 13.904 93.892 13.981 93.748 14.072 C 93.604 14.163 93.415 14.24 93.18 14.304 C 92.945 14.368 92.631 14.4 92.236 14.4 C 91.809 14.4 91.407 14.296 91.028 14.088 C 90.649 13.88 90.34 13.576 90.1 13.176 C 89.963 12.947 89.865 12.69 89.806 12.404 L 89.802 12.384 L 95.084 12.384 C 95.289 12.384 95.473 12.333 95.637 12.23 L 95.756 12.144 C 95.948 11.984 96.049 11.776 96.06 11.52 C 96.06 10.944 95.951 10.4 95.732 9.888 C 95.513 9.376 95.217 8.925 94.844 8.536 C 94.471 8.147 94.041 7.84 93.556 7.616 C 93.071 7.392 92.556 7.28 92.012 7.28 C 91.308 7.28 90.641 7.461 90.012 7.824 C 89.383 8.187 88.873 8.707 88.484 9.384 C 88.095 10.061 87.9 10.88 87.9 11.84 C 87.9 12.661 88.079 13.397 88.436 14.048 C 88.793 14.699 89.305 15.213 89.972 15.592 C 90.639 15.971 91.425 16.16 92.332 16.16 Z M 89.819 10.784 L 94.012 10.784 L 94.012 10.672 C 93.991 10.363 93.881 10.085 93.684 9.84 C 93.487 9.595 93.241 9.4 92.948 9.256 C 92.655 9.112 92.343 9.04 92.012 9.04 C 91.692 9.04 91.393 9.083 91.116 9.168 C 90.839 9.253 90.599 9.397 90.396 9.6 C 90.193 9.803 90.033 10.075 89.916 10.416 L 89.862 10.594 L 89.819 10.784 Z" style="mix-blend-mode: hard-light; stroke-width: 10px; fill: rgb(84, 109, 87);" transform="matrix(0.999857, -0.016914, 0.016914, 0.999857, -0.160385, 1.35624)"/>
  <path d="M24.545 16C24.775 16 24.9775 15.9125 25.1525 15.7375C25.3275 15.5625 25.415 15.345 25.415 15.085V11.429L28.55 6.94C28.59 6.88 28.6222 6.81889 28.6467 6.75667L28.6775 6.6625C28.7025 6.5675 28.715 6.475 28.715 6.385C28.715 6.115 28.6225 5.8925 28.4375 5.7175C28.2525 5.5425 28.045 5.455 27.815 5.455C27.525 5.455 27.275 5.605 27.065 5.905L24.592 9.523L21.95 5.875C21.77 5.635 21.5643 5.49786 21.3329 5.46357L21.215 5.455C20.995 5.455 20.78 5.54 20.57 5.71C20.36 5.88 20.255 6.1 20.255 6.37C20.255 6.47 20.275 6.58 20.315 6.7C20.355 6.82 20.425 6.945 20.525 7.075L23.645 11.222V15.085C23.645 15.3017 23.7058 15.4888 23.8273 15.6465L23.9075 15.7375C24.0825 15.9125 24.295 16 24.545 16Z" fill="#ACD9B2"/>
  <path fill-rule="evenodd" clip-rule="evenodd" d="M37.5874 15.835C37.4124 15.995 37.2199 16.075 37.0099 16.075C36.8299 16.075 36.6674 16.02 36.5224 15.91L36.4198 15.82C36.3232 15.7225 36.2449 15.6025 36.1849 15.46L35.4059 13.645H30.9329L30.1549 15.475C30.0849 15.665 29.9774 15.8125 29.8324 15.9175C29.6874 16.0225 29.5299 16.075 29.3599 16.075C29.0899 16.075 28.8899 16 28.7599 15.85C28.6299 15.7 28.5649 15.515 28.5649 15.295C28.5649 15.205 28.5799 15.11 28.6099 15.01L32.3449 6.04C32.4249 5.84 32.5474 5.685 32.7124 5.575C32.8774 5.465 33.0549 5.42 33.2449 5.44C33.4249 5.44 33.5924 5.4925 33.7474 5.5975C33.9024 5.7025 34.0149 5.85 34.0849 6.04L37.7749 14.83C37.8249 14.96 37.8499 15.08 37.8499 15.19C37.8499 15.46 37.7624 15.675 37.5874 15.835ZM31.6669 11.92H34.6659L33.1589 8.409L31.6669 11.92Z" fill="#ACD9B2"/>
</svg>